<svg xmlns="http://www.w3.org/2000/svg" height="40" width="40"><path fill="#9146ff" d="M16.125 36.042q-2 0-3.583-1.292-1.584-1.292-2.125-3.083-3 .25-5.146-1.75T3.125 24.75q-.125-1.042.042-2.146.166-1.104.791-2.146-.583-.916-.875-1.958-.291-1.042-.208-2.208 0-2.625 1.813-4.625 1.812-2 4.437-2.25 0-.167.063-.25.062-.084.187-.125.458-2.167 2.104-3.604Q13.125 4 15.417 4q1.416 0 2.541.542 1.125.541 2.042 1.541.958-.916 2.062-1.5Q23.167 4 24.542 4q2.25 0 3.916 1.438 1.667 1.437 2.125 3.645.125 0 .209.084.083.083.083.25 2.625.25 4.458 2.208 1.834 1.958 1.875 4.667.042 1.25-.291 2.333-.334 1.083-.959 2 .459.958.563 1.979.104 1.021-.021 1.938 0 2.916-1.979 4.875-1.979 1.958-4.813 1.916-.5 1.917-2.125 3.313-1.625 1.396-3.708 1.396-1.167 0-2.083-.354-.917-.355-1.792-1.105-.875.75-1.792 1.105-.916.354-2.083.354Zm5.958-25.917V30.25q0 .708.521 1.208t1.313.5q.791 0 1.333-.625.542-.625.583-1.333-.541-.208-1-.667-.458-.458-.791-.958-.5-.667-.354-1.479.145-.813.812-1.354.708-.459 1.542-.334.833.125 1.333.792.375.583 1 .896.625.312 1.417.312 1.25 0 2.125-.854t.875-2.229q0-.25-.063-.625-.062-.375-.187-.708-.5.25-1.125.396-.625.145-1.292.145-.792 0-1.396-.583-.604-.583-.604-1.417 0-.833.604-1.458t1.396-.625q1.208 0 2.104-.896.896-.896.896-2.187 0-1.209-.937-2.104-.938-.896-2.063-.98-.5 1.209-1.375 2.063-.875.854-2.042 1.312-.916.292-1.708-.041-.792-.334-1.042-1.167t.125-1.583q.375-.75 1.125-1.084.625-.208.98-.854.354-.646.354-1.354 0-.958-.688-1.625-.687-.667-1.646-.667-.875 0-1.5.605-.625.604-.625 1.437ZM18 30.25V10.125q0-.833-.646-1.437-.646-.605-1.562-.605-.959 0-1.625.667-.667.667-.667 1.625 0 .708.312 1.354.313.646.938.813.75.375 1.104 1.104.354.729.188 1.521-.334.833-1.125 1.166-.792.334-1.667.084-1.167-.417-2.042-1.271-.875-.854-1.375-2.063-1.125.167-2.021 1.021-.895.854-.895 2.063 0 1.291.875 2.187.875.896 2.083.896.833 0 1.437.625.605.625.605 1.417 0 .875-.605 1.458-.604.583-1.437.583-.708 0-1.375-.145-.667-.146-1.292-.396-.125.375-.229.791-.104.417-.104.792 0 1.375.854 2.292.854.916 2.063.916.708 0 1.354-.333.646-.333 1.104-.917.5-.666 1.312-.791.813-.125 1.521.375.709.5.875 1.333.167.833-.375 1.5l-.687.688q-.354.354-.688.562.042.708.563 1.333.521.625 1.312.625.792 0 1.355-.5.562-.5.562-1.208Zm2-9.875Z"/></svg>